<svg width="22" height="26" viewBox="0 0 22 26" fill="none" xmlns="http://www.w3.org/2000/svg">
<path d="M18.1302 13.7798C18.1002 10.5598 20.7702 8.98977 20.8902 8.91977C19.3802 6.71977 17.0402 6.41977 16.2102 6.38977C14.2402 6.17977 12.3302 7.56977 11.3302 7.56977C10.3102 7.56977 8.77021 6.40977 7.10021 6.44977C4.96021 6.47977 2.96021 7.71977 1.86021 9.64977C-0.409787 13.5698 1.28021 19.3398 3.45021 22.5098C4.54021 24.0598 5.81021 25.7998 7.47021 25.7398C9.09021 25.6698 9.70021 24.6998 11.6602 24.6998C13.6002 24.6998 14.1702 25.7398 15.8702 25.6998C17.6102 25.6698 18.7102 24.1398 19.7602 22.5698C21.0102 20.7898 21.5202 19.0398 21.5402 18.9498C21.5102 18.9198 18.1602 17.6498 18.1302 13.7798Z" fill="white"/>
<path d="M14.9301 4.30973C15.8001 3.21973 16.4001 1.72973 16.2401 0.219727C14.9801 0.279727 13.3901 1.09973 12.4801 2.15973C11.6701 3.09973 10.9501 4.64973 11.1401 6.09973C12.5601 6.20973 14.0201 5.37973 14.9301 4.30973Z" fill="white"/>
</svg>
