<svg width="25" height="26" viewBox="0 0 25 26" fill="none" xmlns="http://www.w3.org/2000/svg">
<path d="M1.43998 0.540939C1.14998 0.850939 0.97998 1.33094 0.97998 1.94094V24.0609C0.97998 24.6809 1.14998 25.1609 1.43998 25.4709L1.50998 25.5409L13.9 13.1509V13.0009V12.8509L1.50998 0.460938L1.43998 0.540939Z" fill="url(#paint0_linear_125_1205)"/>
<path d="M18.0304 17.2807L13.9004 13.1507V13.0007V12.8507L18.0304 8.7207L18.1204 8.7707L23.0104 11.5507C24.4104 12.3407 24.4104 13.6407 23.0104 14.4407L18.1204 17.2207L18.0304 17.2807Z" fill="url(#paint1_linear_125_1205)"/>
<path d="M18.1204 17.22L13.9004 13L1.44043 25.46C1.90043 25.95 2.66043 26.01 3.52043 25.52L18.1204 17.22Z" fill="url(#paint2_linear_125_1205)"/>
<path d="M18.1202 8.78048L3.51018 0.480475C2.65018 -0.00952494 1.89018 0.0504764 1.43018 0.540476L13.9002 13.0005L18.1202 8.78048Z" fill="url(#paint3_linear_125_1205)"/>
<path opacity="0.2" d="M18.0302 17.1309L3.5202 25.3809C2.7102 25.8409 1.9802 25.8109 1.5202 25.3909L1.4502 25.4609L1.5202 25.5309C1.9902 25.9509 2.7102 25.9809 3.5202 25.5209L18.1302 17.2209L18.0302 17.1309Z" fill="black"/>
<path opacity="0.12" d="M1.43998 25.3211C1.14998 25.0111 0.97998 24.5311 0.97998 23.9111V24.0611C0.97998 24.6811 1.14998 25.1611 1.43998 25.4711L1.50998 25.4011L1.43998 25.3211Z" fill="black"/>
<path opacity="0.12" d="M23.0203 14.3L18.0303 17.13L18.1203 17.22L23.0103 14.44C23.7103 14.04 24.0603 13.52 24.0603 13C24.0003 13.48 23.6503 13.94 23.0203 14.3Z" fill="black"/>
<path opacity="0.25" d="M3.51022 0.620427L23.0102 11.7004C23.6402 12.0604 24.0002 12.5204 24.0602 13.0004C24.0602 12.4804 23.7102 11.9504 23.0102 11.5604L3.51022 0.480425C2.11022 -0.309575 0.970215 0.350427 0.970215 1.95043V2.10043C0.970215 0.490426 2.12022 -0.169573 3.51022 0.620427Z" fill="white"/>
<defs>
<linearGradient id="paint0_linear_125_1205" x1="12.8006" y1="1.71014" x2="-3.98152" y2="18.4922" gradientUnits="userSpaceOnUse">
<stop stop-color="#00A0FF"/>
<stop offset="0.0066" stop-color="#00A1FF"/>
<stop offset="0.2601" stop-color="#00BEFF"/>
<stop offset="0.5122" stop-color="#00D2FF"/>
<stop offset="0.7604" stop-color="#00DFFF"/>
<stop offset="1" stop-color="#00E3FF"/>
</linearGradient>
<linearGradient id="paint1_linear_125_1205" x1="24.8337" y1="13.0019" x2="0.638194" y2="13.0019" gradientUnits="userSpaceOnUse">
<stop stop-color="#FFE000"/>
<stop offset="0.4087" stop-color="#FFBD00"/>
<stop offset="0.7754" stop-color="#FFA500"/>
<stop offset="1" stop-color="#FF9C00"/>
</linearGradient>
<linearGradient id="paint2_linear_125_1205" x1="15.8287" y1="15.2946" x2="-6.93027" y2="38.0535" gradientUnits="userSpaceOnUse">
<stop stop-color="#FF3A44"/>
<stop offset="1" stop-color="#C31162"/>
</linearGradient>
<linearGradient id="paint3_linear_125_1205" x1="-1.70222" y1="-6.82292" x2="8.46008" y2="3.33938" gradientUnits="userSpaceOnUse">
<stop stop-color="#32A071"/>
<stop offset="0.0685" stop-color="#2DA771"/>
<stop offset="0.4762" stop-color="#15CF74"/>
<stop offset="0.8009" stop-color="#06E775"/>
<stop offset="1" stop-color="#00F076"/>
</linearGradient>
</defs>
</svg>
