<svg width="104" height="104" viewBox="0 0 104 104" fill="none" xmlns="http://www.w3.org/2000/svg">
<circle cx="52" cy="52" r="52" fill="#009EFF"/>
<path d="M25 51.3623C25 49.8317 26.2408 48.591 27.7713 48.591H77.2287C78.7592 48.591 80 49.8317 80 51.3623C80 52.8929 78.7592 54.1336 77.2287 54.1336H27.7713C26.2408 54.1336 25 52.8929 25 51.3623Z" fill="white"/>
<path d="M52.5 78.8623C50.9694 78.8623 49.7287 77.6215 49.7287 76.091L49.7287 26.6336C49.7287 25.1031 50.9694 23.8623 52.5 23.8623C54.0306 23.8623 55.2713 25.1031 55.2713 26.6336L55.2713 76.091C55.2713 77.6215 54.0306 78.8623 52.5 78.8623Z" fill="white"/>
</svg>
